<svg width="55" height="46" viewBox="0 0 55 46" fill="none" xmlns="http://www.w3.org/2000/svg">
<g id="event_available_24px">
<path id="icon/notification/event_available_24px" fill-rule="evenodd" clip-rule="evenodd" d="M43.5417 7.66668H41.25V5.75001C41.25 4.69584 40.2188 3.83334 38.9583 3.83334C37.6979 3.83334 36.6667 4.69584 36.6667 5.75001V7.66668H18.3333V5.75001C18.3333 4.69584 17.3021 3.83334 16.0417 3.83334C14.7813 3.83334 13.75 4.69584 13.75 5.75001V7.66668H11.4583C8.91458 7.66668 6.89792 9.39168 6.89792 11.5L6.875 38.3333C6.875 40.4417 8.91458 42.1667 11.4583 42.1667H43.5417C46.0625 42.1667 48.125 40.4417 48.125 38.3333V11.5C48.125 9.39168 46.0625 7.66668 43.5417 7.66668ZM36.6666 22.0992C36.0021 21.5433 34.9021 21.5433 34.2375 22.0992L24.2687 30.4367L20.625 27.3892C19.9604 26.8333 18.8604 26.8333 18.1958 27.3892C17.5312 27.945 17.5312 28.865 18.1958 29.4208L22.6416 33.1392C23.5354 33.8867 24.9791 33.8867 25.8729 33.1392L36.6437 24.1308C37.3312 23.575 37.3312 22.655 36.6666 22.0992ZM13.75 38.3333H41.25C42.5104 38.3333 43.5417 37.4708 43.5417 36.4167V17.25H11.4583V36.4167C11.4583 37.4708 12.4896 38.3333 13.75 38.3333Z" fill="#1A145E"/>
</g>
</svg>
