<svg width="52" height="54" viewBox="0 0 52 54" fill="none" xmlns="http://www.w3.org/2000/svg">
<g id="group_24px">
<path id="icon/social/group_24px" fill-rule="evenodd" clip-rule="evenodd" d="M23.8117 18C23.8117 21.735 20.93 24.75 17.3333 24.75C13.7367 24.75 10.8333 21.735 10.8333 18C10.8333 14.265 13.7367 11.25 17.3333 11.25C20.93 11.25 23.8117 14.265 23.8117 18ZM41.145 18C41.145 21.735 38.2634 24.75 34.6667 24.75C31.07 24.75 28.1667 21.735 28.1667 18C28.1667 14.265 31.07 11.25 34.6667 11.25C38.2634 11.25 41.145 14.265 41.145 18ZM17.3334 29.25C12.285 29.25 2.16669 31.8825 2.16669 37.125V40.5C2.16669 41.7375 3.14169 42.75 4.33335 42.75H30.3334C31.525 42.75 32.5 41.7375 32.5 40.5V37.125C32.5 31.8825 22.3817 29.25 17.3334 29.25ZM32.5651 29.3625C33.3234 29.295 34.0384 29.25 34.6667 29.25C39.715 29.25 49.8334 31.8825 49.8334 37.125V40.5C49.8334 41.7375 48.8584 42.75 47.6667 42.75H36.4434C36.6817 42.0525 36.8334 41.2875 36.8334 40.5V37.125C36.8334 33.8175 35.1217 31.32 32.6517 29.4525C32.6452 29.4457 32.6386 29.4368 32.6314 29.4271C32.6149 29.4048 32.5953 29.3782 32.5651 29.3625Z" fill="#1A145E"/>
</g>
</svg>
